<?xml version="1.0" encoding="UTF-8" standalone="no"?>
<!-- Created with Inkscape (http://www.inkscape.org/) -->

<svg
   version="1.1"
   id="svg48"
   width="250"
   height="250"
   viewBox="0 0 250 250"
   xmlns="http://www.w3.org/2000/svg"
   xmlns:svg="http://www.w3.org/2000/svg">
  <defs
     id="defs52" />
  <g
     id="g54"
     transform="translate(-2070.7913,-2068.2747)">
    <path
       style="fill:#42cbdb;fill-opacity:1;stroke-width:0.0600552"
       d="m 2298.4693,2117.4093 c 0,0 9.6666,9.0062 -4.3498,14.8533 -14.0164,5.8471 -35.9339,18.0121 -35.9339,18.0121 0,0 -8.5891,7.8426 -17.7486,-0.2996 -7.163,-6.3674 -21.0771,-19.0068 -53.4221,-16.1673 -39.9586,8.8574 -54.3409,38.9601 -51.075,63.3293 2.3117,13.7311 1.0753,13.6915 -9.6944,19.6601 -10.7697,5.9687 -35.6394,17.5503 -35.6394,17.5503 0,0 -12.4698,6.5917 -15.8636,-10.3811 -3.3939,-16.9729 -13.4504,-57.8998 21.8297,-106.9473 35.2802,-49.0474 96.8484,-48.731 96.8484,-48.731 0,0 67.6231,-2.1825 105.0487,49.1212 z"
       id="path369" />
    <path
       style="fill:#42cbdb;fill-opacity:1;stroke-width:0.0600552"
       d="m 2093.1132,2269.1401 c 0,0 -9.6666,-9.0064 4.3497,-14.8535 14.0164,-5.8471 35.9339,-18.0121 35.9339,-18.0121 0,0 8.5891,-7.8426 17.7487,0.2997 7.1629,6.3674 21.0769,19.0067 53.422,16.1672 39.9586,-8.8573 54.3409,-38.9601 51.075,-63.3292 -2.3116,-13.7312 -1.0751,-13.6915 9.6945,-19.6601 10.7697,-5.9687 35.6395,-17.5504 35.6395,-17.5504 0,0 12.4697,-6.5917 15.8636,10.3812 3.3937,16.9728 13.4502,57.8997 -21.8299,106.9472 -35.28,49.0474 -96.8483,48.7311 -96.8483,48.7311 0,0 -67.6231,2.1825 -105.0487,-49.1211 z"
       id="path809" />
  </g>
</svg>
