<?xml version="1.0" encoding="UTF-8" standalone="no"?>
<!-- Created with Inkscape (http://www.inkscape.org/) -->

<svg
  version="1.1"
  id="svg48"
  width="1024"
  height="1024"
  viewBox="0 0 1024 1024"
  xmlns="http://www.w3.org/2000/svg"
  xmlns:svg="http://www.w3.org/2000/svg">
  <path
    style="fill:#42cbdb;fill-opacity:1"
    d="m 3860.7737,915.85871 c 0,0 159.3773,151.45919 -71.715,249.79019 -231.0924,98.331 -592.4522,302.9112 -592.4522,302.9112 0,0 -141.6108,131.8892 -292.6264,-5.0396 -118.0978,-107.0816 -347.5036,-319.6378 -880.7849,-271.886 -658.8104,148.9548 -895.9345,655.1936 -842.0882,1065.0113 38.1129,230.9168 17.7262,230.2504 -159.8363,330.625 -177.56237,100.3746 -587.59577,295.1453 -587.59577,295.1453 0,0 -205.5938,110.8514 -261.5484,-174.5814 C 116.17193,2422.402 -49.632166,1734.1314 532.04053,909.29831 1113.7132,84.465348 2128.8072,89.785748 2128.8072,89.785748 c 0,0 1114.9212,-36.7027 1731.9665,826.072962 z"
    id="path369" />
  <path
    style="fill:#42cbdb;fill-opacity:1"
    d="m 520.04093,3467.5224 c 0,0 -159.3773,-151.4592 71.715,-249.7902 231.0924,-98.331 592.45217,-302.9112 592.45217,-302.9112 0,0 141.6108,-131.8892 292.6264,5.0396 118.0978,107.0816 347.5036,319.6378 880.7849,271.886 658.8104,-148.9548 895.9345,-655.1936 842.0882,-1065.0113 -38.1129,-230.9168 -17.7262,-230.2504 159.8363,-330.625 177.5624,-100.3746 587.5958,-295.1453 587.5958,-295.1453 0,0 205.5938,-110.8514 261.5484,174.5814 55.9546,285.4327 221.7587,973.7033 -359.914,1798.5364 -581.6727,824.833 -1596.7667,819.5126 -1596.7667,819.5126 0,0 -1114.9212,36.7027 -1731.96647,-826.073 z"
    id="path809" />
</svg>
